*
G04 Job   : F:\SuperComputer\AnalogPCB\PCB\AnalogPCB.pcb*
G04 User  : PC-FRHA:frha*
G04 Layer : Layer3.gdo*
G04 Date  : Thu Sep 14 11:46:23 2000*
%ICAS*%
%MOIN*%
%FSLAX24Y24*%
%OFA0.0000B0.0000*%
G90*
%ADD13C,0.0280*%
%ADD10C,0.0310*%
%ADD11C,0.0390*%
%ADD12C,0.1020*%
G01*
G54D10*
X13500Y4500D03*
Y6500D03*
Y8500D03*
Y10500D03*
X15500Y5000D03*
Y8000D03*
Y11000D03*
X17500Y5000D03*
Y8000D03*
Y11000D03*
X21500Y14000D03*
X22500Y5500D03*
Y7500D03*
Y9500D03*
Y11500D03*
X23500Y14000D03*
X24500D03*
X25000Y5500D03*
Y7500D03*
X26500Y14000D03*
G54D11*
X4000Y13500D03*
Y14500D03*
X5000Y13500D03*
Y14500D03*
X6000Y13500D03*
Y14500D03*
X7000Y13500D03*
Y14500D03*
X8000Y13500D03*
Y14500D03*
X9000Y13500D03*
Y14500D03*
X10000Y13500D03*
Y14500D03*
X11000Y13500D03*
Y14500D03*
X12000Y13500D03*
Y14500D03*
X13000Y13500D03*
Y14500D03*
X14000Y13500D03*
Y14500D03*
X28000Y13500D03*
Y14500D03*
X29000Y13500D03*
Y14500D03*
X30000Y13500D03*
Y14500D03*
X31000Y13500D03*
Y14500D03*
X32000Y13500D03*
Y14500D03*
X33000Y13500D03*
Y14500D03*
X34000Y13500D03*
Y14500D03*
X36000Y13500D03*
Y14500D03*
X37000Y13500D03*
Y14500D03*
X37500Y1500D03*
Y2500D03*
X38000Y13500D03*
Y14500D03*
X38500Y1500D03*
Y2500D03*
X39000Y13500D03*
Y14500D03*
X39500Y1500D03*
Y2500D03*
X45000Y9000D03*
Y10000D03*
Y11000D03*
X46000Y9000D03*
Y10000D03*
Y11000D03*
G54D12*
X1000Y1000D03*
Y14500D03*
X33000Y1000D03*
X46000Y14500D03*
G54D13*
X987Y9487D03*
X2455Y12512D03*
X2933Y3184D03*
X3005Y13552D03*
X3077Y12781D03*
X3336Y1462D03*
X4024Y3098D03*
X5090Y3132D03*
X5810Y7925D03*
X6647Y12580D03*
X7930Y9359D03*
X7986Y12559D03*
X8780Y3935D03*
Y6500D03*
X8967Y12722D03*
X9130Y7425D03*
X9993Y12451D03*
X10320Y8880D03*
X10500Y3925D03*
X11914Y9692D03*
X12079Y3585D03*
X12125Y6359D03*
X12425Y12115D03*
X14056Y7658D03*
X14575Y12000D03*
X14641Y3142D03*
X14820Y13620D03*
X17939Y3569D03*
X18260Y9960D03*
X18820Y5380D03*
X18821Y7698D03*
X18892Y3648D03*
X19120Y12680D03*
X19750Y6320D03*
Y11280D03*
X19880Y12680D03*
X21080Y7720D03*
X21367Y4442D03*
X22271Y12484D03*
X22820Y820D03*
X24075Y1500D03*
X25296Y8617D03*
X27363Y4991D03*
X27391Y11717D03*
X27908Y6026D03*
X28466Y7687D03*
X28494Y10798D03*
X29174Y4351D03*
X29999Y12386D03*
X30121Y6520D03*
X30877Y6500D03*
X32320Y4032D03*
X32650Y2622D03*
X32810Y7469D03*
X32916Y8533D03*
X34914Y2602D03*
X34972Y12870D03*
X35000Y3520D03*
X35471Y11585D03*
X35959Y12365D03*
X36159Y3005D03*
X36522Y1162D03*
X36647Y11564D03*
X37502Y12402D03*
X37622Y3407D03*
X38699Y12401D03*
X39269Y3377D03*
X39388Y11625D03*
X39663Y12665D03*
X40160Y3520D03*
X40386Y14979D03*
X40544Y11588D03*
X40670Y1000D03*
X40980Y4795D03*
X41190Y7452D03*
X42450Y13744D03*
X43008Y8579D03*
X43221Y10218D03*
X43223Y4000D03*
X45650D03*
Y6500D03*
M02*
