*
G04 Job   : F:\SuperComputer\PhoneInterfacePCB\PCB\PhoneInterfacePCB.pcb*
G04 User  : PC-FRHA:frha*
G04 Layer : Holes.gdo*
G04 Date  : Thu Sep 14 11:39:05 2000*
%ICAS*%
%MOIN*%
%FSLAX24Y24*%
%OFA0.0000B0.0000*%
G90*
%ADD10C,0.0280*%
%ADD15C,0.0350*%
%ADD12C,0.0390*%
%ADD13C,0.0430*%
%ADD11C,0.0470*%
%ADD14C,0.0510*%
%ADD16C,0.1020*%
G01*
G54D10*
X2217Y13275D03*
X3169Y14188D03*
X5000Y22000D03*
X6000Y12000D03*
X7280Y25620D03*
X7695Y20097D03*
X8280Y23331D03*
X9000Y24995D03*
Y28000D03*
X9020Y19264D03*
X9750Y18250D03*
X10250Y17750D03*
X10750Y18250D03*
X10965Y23697D03*
X11950Y22270D03*
X12995Y30000D03*
X13000Y28250D03*
Y29000D03*
X13217Y26170D03*
X15431Y30109D03*
X15874Y19453D03*
X16280Y30380D03*
X16812Y26635D03*
X17044Y13537D03*
X17253Y12703D03*
X17401Y14310D03*
X17491Y25956D03*
X17720Y29525D03*
X18000Y25000D03*
X18485Y19323D03*
X18883Y22501D03*
X19024Y16938D03*
G54D11*
X12000Y2250D03*
Y5750D03*
X14047Y5000D03*
X14250Y3000D03*
X17750D03*
X19953Y5000D03*
G54D12*
X1000Y4500D03*
Y5500D03*
X2500Y7000D03*
Y17000D03*
X3500Y7000D03*
Y17000D03*
X4500Y7000D03*
Y17000D03*
X5000Y2000D03*
X5500Y7000D03*
Y17000D03*
X6500Y7000D03*
Y17000D03*
X7000Y2000D03*
X7500Y7000D03*
Y17000D03*
X8000Y4000D03*
X8500Y7000D03*
Y17000D03*
X9500Y7000D03*
Y17000D03*
X10000Y4000D03*
X10500Y7000D03*
Y17000D03*
X11500Y7000D03*
Y17000D03*
X12000Y28500D03*
Y29500D03*
X12500Y7000D03*
Y17000D03*
X13500Y7000D03*
Y17000D03*
X14000Y24000D03*
X14500Y7000D03*
Y17000D03*
X15500Y7000D03*
Y17000D03*
X16000Y24000D03*
X17000Y9000D03*
Y11000D03*
X18500Y8500D03*
Y9500D03*
Y10500D03*
Y11500D03*
Y12500D03*
Y13500D03*
Y14500D03*
Y15500D03*
Y27000D03*
Y28000D03*
Y29000D03*
X19500Y8500D03*
Y9500D03*
Y10500D03*
Y11500D03*
Y12500D03*
Y13500D03*
Y14500D03*
Y15500D03*
Y27000D03*
Y28000D03*
Y29000D03*
G54D13*
X4000Y19000D03*
X6000D03*
X18000Y24000D03*
X20000D03*
G54D14*
X4000Y29000D03*
X6000Y21000D03*
X8000Y29000D03*
G54D15*
X5000Y10500D03*
Y15500D03*
X7500Y8000D03*
X9000Y10500D03*
Y15500D03*
X10000Y10500D03*
Y15500D03*
X11500Y1000D03*
X12500Y8000D03*
X13000Y10500D03*
Y15500D03*
X15000Y10500D03*
Y15500D03*
X16500Y1000D03*
G54D16*
X2000Y2000D03*
Y31000D03*
X20000Y2000D03*
Y31000D03*
M02*
