*
G04 Job   : F:\SuperComputer\PhoneInterfacePCB\PCB\PhoneInterfacePCB.pcb*
G04 User  : PC-FRHA:frha*
G04 Layer : LayerTop.gdo*
G04 Date  : Thu Sep 14 11:39:05 2000*
%ICAS*%
%MOIN*%
%FSLAX24Y24*%
%OFA0.0000B0.0000*%
G90*
%AMVB_RECTANGLE*
21,1,$1,$2,0,0,$3*
%
%ADD70C,0.0100*%
%ADD71C,0.0160*%
%ADD10C,0.0550*%
%ADD19C,0.0600*%
%ADD12C,0.0630*%
%ADD11C,0.0750*%
%ADD18C,0.1260*%
%ADD14VB_RECTANGLE,0.0250X0.0600X90.0000*%
%ADD15VB_RECTANGLE,0.0460X0.0650X180.0000*%
%ADD13VB_RECTANGLE,0.0460X0.0650X270.0000*%
%ADD16VB_RECTANGLE,0.0500X0.0750X180.0000*%
%ADD17VB_RECTANGLE,0.0500X0.0750X270.0000*%
G01*
G54D10*
X2217Y13275D03*
X3169Y14188D03*
X5000Y22000D03*
X6000Y12000D03*
X7280Y25620D03*
X7695Y20097D03*
X8280Y23331D03*
X9000Y24995D03*
Y28000D03*
X9020Y19264D03*
X9750Y18250D03*
X10250Y17750D03*
X10750Y18250D03*
X10965Y23697D03*
X11950Y22270D03*
X12995Y30000D03*
X13000Y28250D03*
Y29000D03*
X13217Y26170D03*
X15431Y30109D03*
X15874Y19453D03*
X16280Y30380D03*
X16812Y26635D03*
X17044Y13537D03*
X17253Y12703D03*
X17401Y14310D03*
X17491Y25956D03*
X17720Y29525D03*
X18000Y25000D03*
X18485Y19323D03*
X18883Y22501D03*
X19024Y16938D03*
G54D11*
X4000Y19000D03*
X6000D03*
X12000Y2250D03*
Y5750D03*
X14047Y5000D03*
X14250Y3000D03*
X17750D03*
X18000Y24000D03*
X19953Y5000D03*
X20000Y24000D03*
G54D12*
X1000Y4500D03*
Y5500D03*
X2500Y7000D03*
Y17000D03*
X3500Y7000D03*
Y17000D03*
X4500Y7000D03*
Y17000D03*
X5000Y2000D03*
X5500Y7000D03*
Y17000D03*
X6500Y7000D03*
Y17000D03*
X7000Y2000D03*
X7500Y7000D03*
Y17000D03*
X8000Y4000D03*
X8500Y7000D03*
Y17000D03*
X9500Y7000D03*
Y17000D03*
X10000Y4000D03*
X10500Y7000D03*
Y17000D03*
X11500Y7000D03*
Y17000D03*
X12000Y28500D03*
Y29500D03*
X12500Y7000D03*
Y17000D03*
X13500Y7000D03*
Y17000D03*
X14000Y24000D03*
X14500Y7000D03*
Y17000D03*
X15500Y7000D03*
Y17000D03*
X16000Y24000D03*
X17000Y9000D03*
Y11000D03*
X18500Y8500D03*
Y9500D03*
Y10500D03*
Y11500D03*
Y12500D03*
Y13500D03*
Y14500D03*
Y15500D03*
Y27000D03*
Y28000D03*
Y29000D03*
X19500Y8500D03*
Y9500D03*
Y10500D03*
Y11500D03*
Y12500D03*
Y13500D03*
Y14500D03*
Y15500D03*
Y27000D03*
Y28000D03*
Y29000D03*
G54D13*
X8000Y21620D03*
Y22380D03*
Y25620D03*
Y26380D03*
X9000Y21620D03*
Y22380D03*
Y25620D03*
Y26380D03*
X10000Y25620D03*
Y26380D03*
X12000Y24620D03*
Y25380D03*
X14000Y20620D03*
Y21380D03*
X16000Y21620D03*
Y22380D03*
X17000Y17620D03*
Y18380D03*
Y19620D03*
Y20380D03*
Y29620D03*
Y30380D03*
G54D14*
X9875Y20250D03*
Y20750D03*
Y21250D03*
Y21750D03*
X12125Y20250D03*
Y20750D03*
Y21250D03*
Y21750D03*
X13875Y27250D03*
Y27750D03*
Y28250D03*
Y28750D03*
X16125Y27250D03*
Y27750D03*
Y28250D03*
Y28750D03*
X17875Y20250D03*
Y20750D03*
Y21250D03*
Y21750D03*
X20125Y20250D03*
Y20750D03*
Y21250D03*
Y21750D03*
G54D15*
X6620Y24000D03*
X7380D03*
X11620Y23000D03*
X12380D03*
X13620Y30000D03*
X14380D03*
X14620Y26000D03*
X15380D03*
X18620Y18000D03*
X19380D03*
G54D16*
X13380Y23000D03*
X14620D03*
G54D17*
X13000Y20380D03*
Y21620D03*
G54D18*
X4000Y29000D03*
X6000Y21000D03*
X8000Y29000D03*
G54D19*
X5000Y10500D03*
Y15500D03*
X7500Y8000D03*
X9000Y10500D03*
Y15500D03*
X10000Y10500D03*
Y15500D03*
X11500Y1000D03*
X12500Y8000D03*
X13000Y10500D03*
Y15500D03*
X15000Y10500D03*
Y15500D03*
X16500Y1000D03*
G54D70*
X832Y18830D02*
Y18259D01*
Y18830*
Y19060D02*
Y19489D01*
Y19060*
Y20942D02*
Y20961D01*
Y20942*
Y25502D02*
Y25522D01*
Y25502*
Y26027D02*
Y26456D01*
Y26027*
Y26973D02*
Y27258D01*
Y26973*
Y27258D02*
X919Y27365D01*
X832Y27258*
Y28346D02*
Y28630D01*
Y28346*
Y28630D02*
X946Y28773D01*
X832Y28630*
Y29147D02*
Y29432D01*
Y29147*
Y29432D02*
X946Y29574D01*
X832Y29432*
X946Y19633D02*
X832Y19489D01*
X946Y19633*
Y26600D02*
X832Y26456D01*
X946Y26600*
Y26829D02*
X832Y26973D01*
X946Y26829*
Y28202D02*
X832Y28346D01*
X946Y28202*
Y29003D02*
X832Y29147D01*
X946Y29003*
X948Y19633D02*
X1119D01*
X948*
Y26600D02*
X1119D01*
X948*
Y28773D02*
X1519D01*
X948*
Y29574D02*
X1519D01*
X948*
X1119Y19633D02*
X1232Y19489D01*
X1119Y19633*
Y26600D02*
X1232Y26456D01*
X1119Y26600*
Y26829D02*
X948D01*
X1119*
X1196Y18660D02*
Y18259D01*
Y18660*
X1232Y19060D02*
Y19489D01*
Y19060*
Y19489D02*
X1632Y19632D01*
X1232Y19489*
Y20433D02*
Y19862D01*
Y20433*
Y26027D02*
Y26456D01*
Y26027*
Y26456D02*
X1632Y26598D01*
X1232Y26456*
Y26973D02*
X1119Y26829D01*
X1232Y26973*
Y27258D02*
Y26973D01*
Y27258*
X1348Y27400*
X1232Y27258*
X1288Y20664D02*
X832Y20942D01*
X1288Y20664*
Y21235D02*
X832Y20961D01*
X1288Y21235*
Y25224D02*
X832Y25502D01*
X1288Y25224*
Y25795D02*
X832Y25522D01*
X1288Y25795*
X1290Y24709D02*
X832Y24994D01*
X1290Y24709*
X832Y24422*
X1290Y24709*
X1404Y21235D02*
Y20664D01*
Y21235*
Y25795D02*
Y25224D01*
Y25795*
X1519Y26829D02*
X1632Y26973D01*
X1519Y26829*
Y27400D02*
X1346D01*
X1519*
Y28202D02*
X948D01*
X1519*
Y28773D02*
X1632Y28630D01*
X1519Y28773*
Y29003D02*
X948D01*
X1519*
Y29574D02*
X1632Y29432D01*
X1519Y29574*
X1575Y28275D02*
X890Y28702D01*
X1575Y28275*
Y29077D02*
X890Y29504D01*
X1575Y29077*
X1632Y18259D02*
X832D01*
X1632*
Y19060D02*
X832D01*
X1632*
Y19862D02*
X832D01*
X1632*
Y20433D02*
X832D01*
X1632*
Y20664D02*
X1290D01*
X1632*
Y21235D02*
X1290D01*
X1632*
Y24422D02*
X832D01*
X1632*
Y24994D02*
X832D01*
X1632*
Y25224D02*
X1290D01*
X1632*
Y25795D02*
X1290D01*
X1632*
Y26027D02*
X832D01*
X1632*
Y26973D02*
Y27258D01*
Y26973*
Y27258D02*
X1519Y27400D01*
X1632Y27258*
Y28346D02*
X1519Y28202D01*
X1632Y28346*
Y28630D02*
Y28346D01*
Y28630*
Y29147D02*
X1519Y29003D01*
X1632Y29147*
Y29432D02*
Y29147D01*
Y29432*
G54D71*
X5000Y22000D02*
X6133D01*
X6870Y22737*
X7038*
X6000Y12000D02*
X11275D01*
X11978Y12703*
X17253*
X6620Y24000D02*
Y23475D01*
X7038Y23057*
Y22737*
X7548*
X7905Y22380*
X8000*
X7280Y25620D02*
X8000D01*
X7695Y20097D02*
X8398D01*
X9051Y20750*
X9875*
X8000Y26380D02*
X9000D01*
X8280Y23331D02*
X8755Y22856D01*
Y22380*
X9000*
X8755Y21620D02*
X8000D01*
X9000D02*
X8755D01*
X9000Y24995D02*
Y25620D01*
Y28000D02*
X10623D01*
X10873Y27750*
X13875*
X9875Y20250D02*
Y19945D01*
X9695Y19765*
X9521*
X9020Y19264*
X9875Y20750D02*
X10750D01*
X11250Y20250*
X12125*
X9875Y21250D02*
X9375D01*
X9347Y21278*
Y21424*
X9151Y21620*
X9000*
X9875Y21750D02*
Y22075D01*
X9570Y22380*
X9000*
X10000Y25620D02*
X10727D01*
X10967Y25860*
Y26057*
X11047Y26137*
Y26170*
X10000Y26380D02*
X9000D01*
X11620Y23000D02*
Y23095D01*
X11018Y23697*
X10965*
X12000Y24620D02*
X10663D01*
X10288Y24995*
X9000*
X12000Y25380D02*
X13007D01*
X13211Y25176*
X18000*
Y25000*
X12125Y20750D02*
X11625D01*
X10550Y21825*
Y22127*
X8677Y24000*
X7380*
X12125Y20750D02*
X12294D01*
X12315Y20771*
X12484*
X12875Y20380*
X13000*
X12180Y22270D02*
Y22148D01*
X12125Y22093*
Y21750*
X12180Y22270D02*
X11950D01*
X12380Y23000D02*
Y22470D01*
X12180Y22270*
X12995Y30000D02*
X13092D01*
X13093*
X13620*
X13000Y20380D02*
X13295D01*
Y20830*
X13845Y21380*
X14000*
X13000Y21620D02*
X12875D01*
X12484Y21229*
X12315*
X12294Y21250*
X12125*
X13000Y29000D02*
X13063D01*
X13313Y28750*
X13875*
X13217Y26170D02*
X11047D01*
X13380Y23000D02*
Y22865D01*
X13000Y22485*
Y21620*
X13620Y30000D02*
Y29475D01*
X13820Y29275*
X14572*
X14685Y29162*
Y27363*
X14572Y27250*
X13875*
Y28250D02*
X13000D01*
X14620Y23000D02*
Y20715D01*
X14525Y20620*
X14000*
X14620Y26000D02*
Y26657D01*
X15295Y27332*
Y28420*
X15625Y28750*
X15380Y26000D02*
X16177D01*
X16812Y26635*
X15625Y28750D02*
X15218Y29158D01*
Y29297*
X14790Y29724*
X14380*
Y30000*
X16000Y21620D02*
Y20908D01*
X14690Y19598*
X10242*
X8957Y18312*
X7932*
X7057Y19188*
Y20615*
X7312Y20871*
X8436*
X8755Y21190*
Y21620*
X16000Y22380D02*
X15905D01*
X15130Y23155*
X14775*
X14620Y23000*
X16125Y27250D02*
Y26840D01*
X15380Y26095*
Y26000*
X16125Y27750D02*
X16605D01*
X17491Y26864*
Y25956*
X16125Y28750D02*
X15625D01*
X16125D02*
Y29415D01*
X15431Y30109*
X16280Y30380D02*
X17000D01*
Y17620D02*
X16475D01*
X15874Y18221*
Y19453*
X17000Y18380D02*
X17668D01*
X18048Y18000*
X18620*
X17000Y19620D02*
Y18380D01*
Y19620D02*
X17570D01*
X17875Y19925*
Y20250*
X17000Y29620D02*
Y28625D01*
X16625Y28250*
X16125*
X17044Y13537D02*
X9761D01*
X9500Y13275*
X2217*
X17401Y14310D02*
X10347D01*
X10224Y14188*
X3169*
X17720Y29525D02*
X17670D01*
X17575Y29620*
X17000*
X17875Y20750D02*
X18375D01*
X18485Y20640*
Y19323*
X17875Y20750D02*
X17373D01*
X17003Y20380*
X17000*
X17875Y21250D02*
X17375D01*
X16818Y21807*
Y24127*
X16169Y24775*
X13520*
X12935Y24190*
X8883*
X8377Y24696*
X7212*
X6510Y25397*
Y26536*
X7225Y27251*
X10429*
X11047Y26632*
Y26170*
X18000Y25000D02*
X17664Y24664D01*
X17236*
X17122Y24551*
Y23764*
X17875Y23012*
Y21750*
X18883Y22501D02*
X19625Y21759D01*
Y21750*
X19024Y16938D02*
X18620Y17341D01*
Y18000*
X19380D02*
Y19117D01*
X19550Y19287*
Y20675*
X19625Y20750*
Y21250*
Y21750D02*
Y21250D01*
X20125Y20750D02*
X19625D01*
X20125Y21250D02*
X19625D01*
X20125Y21750D02*
X19625D01*
M02*
