*
G04 Job   : F:\SuperComputer\PhoneInterfacePCB\PCB\PhoneInterfacePCB.pcb*
G04 User  : PC-FRHA:frha*
G04 Layer : Placement.gdo*
G04 Date  : Thu Sep 14 11:39:04 2000*
%ICAS*%
%MOIN*%
%FSLAX24Y24*%
%OFA0.0000B0.0000*%
G90*
%ADD11C,0.0080*%
%ADD10C,0.0100*%
G01*
G54D10*
X2000Y6500D02*
Y7500D01*
Y6500D02*
X16000D01*
X2000Y7500D02*
X16000D01*
X2000Y16500D02*
X16000D01*
X2000D02*
Y17500D01*
X16000*
X3498Y29999D02*
Y30499D01*
Y29999*
X3600Y19800D02*
Y18200D01*
X3676Y30499D02*
X3319D01*
X3676*
X3820Y29999D02*
Y30499D01*
Y29999*
Y30249D02*
X4088D01*
X3820*
Y30499D02*
X4088D01*
X3820*
X4178Y30320D02*
X4088Y30249D01*
X4178Y30320*
Y30427D02*
Y30320D01*
Y30427*
Y30428D02*
X4088Y30499D01*
X4178Y30428*
X4300Y2000D02*
G03X6000Y300I1700D01*
X7700Y2000J1700*
X6000Y3700I1700*
X4300Y2003J1700*
G01X4349Y18931D02*
Y19288D01*
Y18931*
Y19289D02*
X4439Y19360D01*
X4349Y19289*
X4393Y29999D02*
X4607D01*
X4393*
X4439Y18860D02*
X4349Y18931D01*
X4439Y18860*
Y19360D02*
X4617D01*
X4439*
X4500Y11500D02*
X5500D01*
X4500Y14500D02*
X5500D01*
X4500D02*
Y11500D01*
Y29999D02*
Y30499D01*
Y29999*
Y30499D02*
X4393Y30356D01*
X4500Y30499*
X4617Y18860D02*
X4439D01*
X4617*
Y19360D02*
X4706Y19289D01*
X4617Y19360*
X4706Y18931D02*
X4617Y18860D01*
X4706Y18931*
X4713Y12535D02*
Y12803D01*
Y12535*
X4727Y13358D02*
X5044Y13036D01*
X4727Y13358*
X4784Y12893D02*
X4713Y12803D01*
X4784Y12893*
X4785D02*
X4892D01*
X4785*
X4840Y29000D02*
G03X4000Y29840I840D01*
X3160Y29000J840*
X4000Y28160I840*
X4840Y29000J840*
G01X4892Y12893D02*
X4963Y12803D01*
X4892Y12893*
X4921Y18860D02*
X5135D01*
X4921*
X4963Y12535D02*
Y12803D01*
Y12535*
Y12803D02*
X5213Y12892D01*
X4963Y12803*
X5000Y11500D02*
Y10500D01*
Y15500D02*
Y14500D01*
X5028Y18860D02*
Y19360D01*
Y18860*
Y19360D02*
X4921Y19217D01*
X5028Y19360*
X5045Y13036D02*
Y13393D01*
Y13036*
X5213Y12535D02*
X4713D01*
X5213*
Y13358D02*
X4727D01*
X5213*
X5350Y18931D02*
Y19288D01*
Y18931*
Y19289D02*
X5440Y19360D01*
X5350Y19289*
X5396Y18896D02*
X5663Y19324D01*
X5396Y18896*
X5440Y18860D02*
X5350Y18931D01*
X5440Y18860*
Y19360D02*
X5618D01*
X5440*
X5487Y1054D02*
Y1554D01*
Y1054*
X5498Y21999D02*
Y22499D01*
Y21999*
X5500Y14500D02*
Y11500D01*
X5600Y18750D02*
Y18250D01*
X5618Y18860D02*
X5440D01*
X5618*
Y19360D02*
X5707Y19289D01*
X5618Y19360*
X5676Y22499D02*
X5319D01*
X5676*
X5707Y18931D02*
X5618Y18860D01*
X5707Y18931*
Y19288D02*
Y18931D01*
Y19288*
X5738Y1327D02*
X5487D01*
X5738*
X5820Y21999D02*
Y22499D01*
Y21999*
Y22249D02*
X6088D01*
X5820*
Y22499D02*
X6088D01*
X5820*
X5844Y1554D02*
X5487D01*
X5844*
X5850Y18500D02*
X5350D01*
X6060Y1054D02*
X6274D01*
X6060*
X6167D02*
Y1554D01*
Y1054*
Y1554D02*
X6060Y1411D01*
X6167Y1554*
X6178Y22320D02*
X6088Y22249D01*
X6178Y22320*
Y22427D02*
Y22320D01*
Y22427*
Y22428D02*
X6088Y22499D01*
X6178Y22428*
X6321Y21999D02*
X6678D01*
X6321*
Y22070D02*
Y21999D01*
Y22070*
Y22428D02*
X6411Y22499D01*
X6321Y22428*
X6400Y18200D02*
X3600D01*
X6400Y19800D02*
X3600D01*
X6400D02*
Y18200D01*
X6411Y22499D02*
X6589D01*
X6411*
X6589D02*
X6678Y22428D01*
X6589Y22499*
X6678Y22356D02*
Y22427D01*
Y22356*
X6321Y22070*
X6678Y22356*
X6840Y21000D02*
G03X6000Y21840I840D01*
X5160Y21000J840*
X6000Y20160I840*
X6840Y21000J840*
G01X7300Y4000D02*
G03X9000Y2300I1700D01*
X10700Y4000J1700*
X9000Y5700I1700*
X7300Y4003J1700*
G01X7498Y29999D02*
Y30499D01*
Y29999*
X7500Y8000D02*
X8500D01*
X7676Y30499D02*
X7319D01*
X7676*
X7820Y29999D02*
Y30499D01*
Y29999*
Y30249D02*
X8088D01*
X7820*
Y30499D02*
X8088D01*
X7820*
X8178Y30320D02*
X8088Y30249D01*
X8178Y30320*
Y30427D02*
Y30320D01*
Y30427*
Y30428D02*
X8088Y30499D01*
X8178Y30428*
X8411Y29999D02*
X8321Y30070D01*
X8411Y29999*
Y30499D02*
X8321Y30428D01*
X8411Y30499*
X8448Y16959D02*
Y17459D01*
Y16959*
Y17209D02*
X8716D01*
X8448*
Y17459D02*
X8716D01*
X8448*
X8500Y7500D02*
Y8500D01*
Y7500D02*
X11500D01*
X8500Y8500D02*
X11500D01*
X8500Y11500D02*
Y14500D01*
X8589Y29999D02*
X8411D01*
X8589*
Y30499D02*
X8411D01*
X8589*
X8590Y30249D02*
X8498D01*
X8590*
X8678Y30177*
X8590Y30249*
X8678Y30070D02*
X8589Y29999D01*
X8678Y30070*
Y30177D02*
Y30070D01*
Y30177*
Y30320D02*
X8590Y30249D01*
X8678Y30320*
Y30427D02*
Y30320D01*
Y30427*
Y30428D02*
X8589Y30499D01*
X8678Y30428*
X8692Y6727D02*
Y7227D01*
Y6727*
Y6977D02*
X8960D01*
X8692*
Y7227D02*
X8960D01*
X8692*
X8703Y3052D02*
Y3552D01*
Y3052*
X8806Y12535D02*
Y12803D01*
Y12535*
Y13036D02*
X9057D01*
X8806*
Y13393*
Y13036*
Y17280D02*
X8716Y17209D01*
X8806Y17280*
Y17387D02*
Y17280D01*
Y17387*
Y17388D02*
X8716Y17459D01*
X8806Y17388*
X8840Y29000D02*
G03X8000Y29840I840D01*
X7160Y29000J840*
X8000Y28160I840*
X8840Y29000J840*
G01X8877Y12893D02*
X8806Y12803D01*
X8877Y12893*
X8878D02*
X8985D01*
X8878*
X8949Y16959D02*
X9306D01*
X8949*
Y17030D02*
Y16959D01*
Y17030*
Y17388D02*
X9039Y17459D01*
X8949Y17388*
X8954Y3325D02*
X8703D01*
X8954*
X8985Y12893D02*
X9056Y12803D01*
X8985Y12893*
Y13126D02*
Y13304D01*
Y13126*
X9000Y10500D02*
Y11500D01*
Y14500D02*
Y15500D01*
X9039Y17459D02*
X9217D01*
X9039*
X9050Y7048D02*
X8960Y6977D01*
X9050Y7048*
Y7155D02*
Y7048D01*
Y7155*
Y7156D02*
X8960Y7227D01*
X9050Y7156*
X9056Y12535D02*
Y12803D01*
Y12535*
Y12803D02*
X9306Y12892D01*
X9056Y12803*
X9057Y13036D02*
X8985Y13126D01*
X9057Y13036*
Y13393D02*
X8985Y13304D01*
X9057Y13393*
X9060Y3552D02*
X8703D01*
X9060*
X9150Y19150D02*
X9350Y19350D01*
X9204Y3052D02*
X9561D01*
X9204*
Y3123D02*
Y3052D01*
Y3123*
Y3481D02*
X9294Y3552D01*
X9204Y3481*
X9217Y17459D02*
X9306Y17388D01*
X9217Y17459*
X9235Y13036D02*
X9306Y13126D01*
X9235Y13036*
Y13393D02*
X9057D01*
X9235*
X9265Y6727D02*
X9479D01*
X9265*
X9294Y3552D02*
X9472D01*
X9294*
X9306Y12535D02*
X8806D01*
X9306*
Y13126D02*
Y13304D01*
Y13126*
Y13304D02*
X9235Y13393D01*
X9306Y13304*
Y17316D02*
X8949Y17030D01*
X9306Y17316*
Y17387*
Y17316*
X9350Y18950D02*
X9150Y19150D01*
X9372Y6727D02*
Y7227D01*
Y6727*
Y7227D02*
X9265Y7084D01*
X9372Y7227*
X9472Y3552D02*
X9561Y3481D01*
X9472Y3552*
X9500Y11500D02*
X8500D01*
X9500D02*
X10500D01*
X9500D02*
Y14500D01*
X8500*
X9500D02*
X10500D01*
X9500D02*
Y11500D01*
X9550Y19150D02*
X9350Y19350D01*
X9561Y3409D02*
X9204Y3123D01*
X9561Y3409*
Y3480*
Y3409*
X9667Y7847D02*
Y8347D01*
Y7847*
Y8097D02*
X9935D01*
X9667*
Y8347D02*
X9935D01*
X9667*
X9781Y12681D02*
Y12949D01*
Y12681*
Y13272D02*
X9852Y13182D01*
X9781Y13272*
Y13450D02*
Y13272D01*
Y13450*
X9852Y13039D02*
X9781Y12949D01*
X9852Y13039*
Y13539D02*
X9781Y13450D01*
X9852Y13539*
X9853Y13039D02*
X9960D01*
X9853*
Y13539D02*
X9960D01*
X9853*
X9910Y18443D02*
X10000Y18372D01*
X9910Y18443*
Y18800D02*
Y18443D01*
Y18800*
X9935Y8097D02*
X10024Y7847D01*
X9935Y8097*
X9960Y13039D02*
X10031Y12949D01*
X9960Y13039*
Y13539D02*
X10031Y13451D01*
X9960Y13539*
X10000Y11500D02*
Y10500D01*
Y15500D02*
Y14500D01*
Y18372D02*
X10178D01*
X10000*
Y18872D02*
X9910Y18800D01*
X10000Y18872*
X10025Y8168D02*
X9935Y8097D01*
X10025Y8168*
Y8275D02*
Y8168D01*
Y8275*
Y8276D02*
X9935Y8347D01*
X10025Y8276*
X10031Y12681D02*
Y12949D01*
Y12681*
Y12949D02*
X10281Y13038D01*
X10031Y12949*
Y13451D02*
X10103Y13539D01*
X10031Y13451*
Y13359*
Y13451*
X10103Y13539D02*
X10210D01*
X10103*
X10168Y7918D02*
Y8275D01*
Y7918*
Y8061D02*
X10258Y8133D01*
X10168Y8061*
Y8276D02*
X10258Y8347D01*
X10168Y8276*
X10178Y18372D02*
X10267Y18443D01*
X10178Y18372*
Y18872D02*
X10000D01*
X10178*
X10210Y13539D02*
X10281Y13450D01*
X10210Y13539*
X10250Y17100D02*
G03X11400Y18250J1150D01*
X10250Y19400I1150*
X9100Y18250J1150*
X10248Y17100I1150*
G01X10258Y7847D02*
X10168Y7918D01*
X10258Y7847*
Y8133D02*
X10436D01*
X10258*
Y8347D02*
X10436D01*
X10258*
X10267Y18372D02*
X10162Y18499D01*
X10267Y18372*
Y18800D02*
Y18443D01*
Y18800*
X10178Y18872*
X10267Y18800*
X10281Y12681D02*
X9781D01*
X10281*
Y13272D02*
X10210Y13182D01*
X10281Y13272*
Y13450D02*
Y13272D01*
Y13450*
X10436Y7847D02*
X10258D01*
X10436*
Y8133D02*
X10525Y8061D01*
X10436Y8133*
Y8347D02*
X10525Y8276D01*
X10436Y8347*
X10483Y18372D02*
X10697D01*
X10483*
X10500Y14500D02*
Y11500D01*
X10525Y7918D02*
X10436Y7847D01*
X10525Y7918*
Y8061D02*
Y7918D01*
Y8061*
X10590Y18372D02*
Y18872D01*
Y18372*
Y18872D02*
X10483Y18729D01*
X10590Y18872*
X11460Y2950D02*
Y4990D01*
X11500Y7500D02*
Y8500D01*
Y8000D02*
X12500D01*
X11500Y28000D02*
Y30000D01*
Y28000D02*
X12500D01*
X11500Y30000D02*
X12500D01*
X11632Y3520D02*
Y3788D01*
Y3520*
Y3788D02*
X11704Y3877D01*
X11632Y3788*
Y4021D02*
X11883D01*
X11632*
Y4378*
Y4021*
X11758Y28643D02*
Y28911D01*
Y28643*
Y29234D02*
Y29412D01*
Y29234*
Y29412D02*
X11829Y29501D01*
X11758Y29412*
X11811Y4111D02*
Y4289D01*
Y4111*
X11829Y29001D02*
X11758Y28911D01*
X11829Y29001*
Y29144D02*
X11758Y29234D01*
X11829Y29144*
X11830Y29001D02*
X11937D01*
X11830*
X11883Y4021D02*
X11811Y4111D01*
X11883Y4021*
Y4378D02*
X11811Y4289D01*
X11883Y4378*
X11937Y29001D02*
X12008Y28911D01*
X11937Y29001*
X11972Y29234D02*
Y29412D01*
Y29234*
Y29412D02*
X12044Y29501D01*
X11972Y29412*
X12000Y2250D02*
Y2950D01*
Y4990D02*
Y5750D01*
Y30000D02*
X11500Y29500D01*
X12008Y28643D02*
Y28911D01*
Y28643*
X12044Y29144D02*
X11972Y29234D01*
X12044Y29144*
Y29501D02*
X12187D01*
X12044*
X12060Y3877D02*
X11703D01*
X12060*
X12061D02*
X12132Y3788D01*
X12061Y3877*
Y4021D02*
X12132Y4111D01*
X12061Y4021*
Y4378D02*
X11883D01*
X12061*
X12132Y3520D02*
X11632D01*
X12132*
Y3788D02*
Y3520D01*
Y3788*
Y4111D02*
Y4289D01*
Y4111*
Y4289D02*
X12061Y4378D01*
X12132Y4289*
X12187Y29144D02*
X11830D01*
X12187*
Y29501D02*
X12258Y29412D01*
X12187Y29501*
X12258Y28643D02*
X11758D01*
X12258*
Y29234D02*
X12187Y29144D01*
X12258Y29234*
Y29412D02*
Y29234D01*
Y29412*
X12500Y1000D02*
X11500D01*
X12500Y1500D02*
Y500D01*
Y11500D02*
Y14500D01*
Y28000D02*
Y30000D01*
X12520Y2950D02*
X11460D01*
X12520D02*
Y4990D01*
Y3230D02*
X11460D01*
X12520Y4990D02*
X11460D01*
X12700Y20270D02*
X13300D01*
X12700Y20470D02*
X13300D01*
X12700Y21200D02*
X13300D01*
X12700Y21530D02*
X13300D01*
X12700Y21730D02*
Y20270D01*
Y21730D02*
X13300D01*
X12704Y12340D02*
Y12608D01*
Y12340*
Y13020D02*
X12847Y12913D01*
X12704Y13020*
Y20526D02*
Y20794D01*
Y20526*
Y20794D02*
X12776Y20883D01*
X12704Y20794*
X12718Y21349D02*
X13035Y21027D01*
X12718Y21349*
X12775Y12698D02*
X12704Y12608D01*
X12775Y12698*
X12776D02*
X12883D01*
X12776*
X12883D02*
X12954Y12608D01*
X12883Y12698*
X12954Y12340D02*
Y12608D01*
Y12340*
Y12608D02*
X13204Y12697D01*
X12954Y12608*
X13000Y10500D02*
Y11500D01*
Y14500D02*
Y15500D01*
X13036Y21027D02*
Y21384D01*
Y21027*
X13132Y20883D02*
X12775D01*
X13132*
X13133D02*
X13204Y20794D01*
X13133Y20883*
X13204Y12340D02*
X12704D01*
X13204*
Y12913D02*
Y13127D01*
Y12913*
Y13020D02*
X12704D01*
X13204*
Y20526D02*
X12704D01*
X13204*
Y20794D02*
Y20526D01*
Y20794*
Y21349D02*
X12718D01*
X13204*
X13270Y23300D02*
Y22700D01*
X13300Y21730D02*
Y20270D01*
X13470Y23300D02*
Y22700D01*
X13500Y11500D02*
Y14500D01*
Y11500D02*
X12500D01*
X13500Y14500D02*
X12500D01*
X13565Y22855D02*
Y23355D01*
Y22855*
Y23355D02*
X13833D01*
X13565*
X13614Y782D02*
Y1282D01*
Y782*
Y1032D02*
X13882D01*
X13614*
Y1282D02*
X13882D01*
X13614*
X13833Y22855D02*
X13565D01*
X13833*
Y23355D02*
X13922Y23283D01*
X13833Y23355*
X13882Y1032D02*
X13971Y782D01*
X13882Y1032*
X13922Y22926D02*
X13833Y22855D01*
X13922Y22926*
Y22927D02*
Y23284D01*
Y22927*
X13972Y1103D02*
X13882Y1032D01*
X13972Y1103*
Y1210D02*
Y1103D01*
Y1210*
Y1211D02*
X13882Y1282D01*
X13972Y1211*
X14115Y782D02*
X14472D01*
X14115*
Y853D02*
Y782D01*
Y853*
Y1211D02*
X14205Y1282D01*
X14115Y1211*
X14156Y22855D02*
X14066Y22926D01*
X14156Y22855*
Y23355D02*
X14066Y23284D01*
X14156Y23355*
X14200Y23300D02*
Y22700D01*
X14205Y1282D02*
X14383D01*
X14205*
X14334Y22855D02*
X14156D01*
X14334*
Y23355D02*
X14156D01*
X14334*
X14335Y23105D02*
X14423Y23033D01*
X14335Y23105*
X14243*
X14335*
X14383Y1282D02*
X14472Y1211D01*
X14383Y1282*
X14423Y22926D02*
X14334Y22855D01*
X14423Y22926*
Y23033D02*
Y22926D01*
Y23033*
Y23176D02*
X14335Y23105D01*
X14423Y23176*
Y23283D02*
Y23176D01*
Y23283*
Y23284D02*
X14334Y23355D01*
X14423Y23284*
X14472Y1139D02*
X14115Y853D01*
X14472Y1139*
Y1210*
Y1139*
X14500Y11500D02*
X15500D01*
X14500Y14500D02*
X15500D01*
X14500D02*
Y11500D01*
X14530Y23300D02*
Y22700D01*
X14730D02*
X13270D01*
X14730Y23300D02*
Y22700D01*
Y23300D02*
X13270D01*
X14751Y12486D02*
Y12754D01*
Y12486*
Y13344D02*
Y12987D01*
Y13344*
X14822Y12844D02*
X14751Y12754D01*
X14822Y12844*
X14823D02*
X14930D01*
X14823*
X14930D02*
X15001Y12754D01*
X14930Y12844*
X15000Y6500D02*
Y7500D01*
Y11500D02*
Y10500D01*
Y15500D02*
Y14500D01*
Y16500D02*
Y17500D01*
X15001Y12486D02*
Y12754D01*
Y12486*
Y12754D02*
X15251Y12843D01*
X15001Y12754*
X15010Y3000D02*
X14250D01*
X15010Y3520D02*
Y2460D01*
X15251Y12486D02*
X14751D01*
X15251*
Y13059D02*
X14751Y13344D01*
X15251Y13059*
X15465Y2780D02*
Y3280D01*
Y2780*
Y3280D02*
X15733D01*
X15465*
X15500Y500D02*
X12500D01*
X15500Y1500D02*
Y500D01*
Y1500D02*
X12500D01*
X15500Y14500D02*
Y11500D01*
X15733Y2780D02*
X15465D01*
X15733*
Y3280D02*
X15822Y3208D01*
X15733Y3280*
X15822Y2851D02*
X15733Y2780D01*
X15822Y2851*
Y2852D02*
Y3209D01*
Y2852*
X15966Y2780D02*
X16323D01*
X15966*
Y2851D02*
Y2780D01*
Y2851*
Y3209D02*
X16056Y3280D01*
X15966Y3209*
X16000Y6500D02*
Y7500D01*
Y16500D02*
Y17500D01*
X16056Y3280D02*
X16234D01*
X16056*
X16234D02*
X16323Y3209D01*
X16234Y3280*
X16323Y3137D02*
X15966Y2851D01*
X16323Y3137*
Y3208*
Y3137*
X16500Y1000D02*
X15500D01*
X16770Y3520D02*
Y2460D01*
X17050D02*
X15010D01*
X17050Y3520D02*
Y2460D01*
Y3520D02*
X15010D01*
X17600Y23200D02*
Y24800D01*
Y23200D02*
X20400D01*
X17600Y24800D02*
X20400D01*
X17750Y3000D02*
X17050D01*
X18000Y26500D02*
X20000D01*
X18000Y29500D02*
X20000D01*
X18000D02*
Y26500D01*
X18150Y24500D02*
X18650D01*
X18400Y24250D02*
Y24750D01*
X18681Y23803D02*
Y24160D01*
Y23803*
Y24161D02*
X18771Y24232D01*
X18681Y24161*
X18771Y23732D02*
X18681Y23803D01*
X18771Y23732*
Y24232D02*
X18949D01*
X18771*
X18850Y27809D02*
Y28077D01*
Y27809*
Y28310D02*
X19101D01*
X18850*
Y28667*
Y28310*
X18921Y28167D02*
X18850Y28077D01*
X18921Y28167*
X18922D02*
X19029D01*
X18922*
X18949Y23732D02*
X18771D01*
X18949*
Y24232D02*
X19038Y24161D01*
X18949Y24232*
X19029Y28167D02*
X19100Y28077D01*
X19029Y28167*
Y28400D02*
Y28578D01*
Y28400*
X19038Y23803D02*
X18949Y23732D01*
X19038Y23803*
X19100Y27809D02*
Y28077D01*
Y27809*
X19101Y28310D02*
X19029Y28400D01*
X19101Y28310*
Y28667D02*
X19029Y28578D01*
X19101Y28667*
X19181Y24018D02*
Y24160D01*
Y24018*
Y24161D02*
X19271Y24232D01*
X19181Y24161*
X19271Y23732D02*
X19181Y23803D01*
X19271Y23732*
Y23946D02*
X19181Y24018D01*
X19271Y23946*
Y24232D02*
X19449D01*
X19271*
X19279Y28310D02*
X19350Y28400D01*
X19279Y28310*
Y28667D02*
X19101D01*
X19279*
X19350Y27809D02*
X18850D01*
X19350*
Y28400D02*
Y28578D01*
Y28400*
Y28578D02*
X19279Y28667D01*
X19350Y28578*
X19449Y23732D02*
X19271D01*
X19449*
Y23946D02*
X19271D01*
X19449*
Y24232D02*
X19538Y24160D01*
X19449Y24232*
X19538Y23803D02*
X19449Y23732D01*
X19538Y23803*
Y24018D02*
X19449Y23946D01*
X19538Y24018*
Y24160D02*
Y23803D01*
Y24160*
X20000Y26750D02*
X19750Y26500D01*
X20000Y29500D02*
Y26500D01*
X20400Y23200D02*
Y24800D01*
G54D11*
X500Y4000D02*
X1500D01*
X500Y6000D02*
Y4000D01*
Y6000D02*
X1500D01*
X600Y4559D02*
Y4827D01*
Y4559*
X614Y5382D02*
X931Y5060D01*
X614Y5382*
X671Y4917D02*
X600Y4827D01*
X671Y4917*
X672D02*
X779D01*
X672*
X779D02*
X850Y4827D01*
X779Y4917*
X850Y4559D02*
Y4827D01*
Y4559*
X932Y5060D02*
Y5417D01*
Y5060*
X1000Y4000D02*
X500Y4500D01*
X1100Y4559D02*
X600D01*
X1100*
Y5382D02*
X614D01*
X1100*
X1500Y6000D02*
Y4000D01*
X6200Y23600D02*
X7800D01*
X6200Y24400D02*
Y23600D01*
X6464Y23910D02*
Y24310D01*
Y23910*
Y24110D02*
X6679D01*
X6464*
Y24310D02*
X6679D01*
X6464*
X6679Y24110D02*
X6750Y23910D01*
X6679Y24110*
X6751Y24167D02*
X6679Y24110D01*
X6751Y24167*
Y24253D02*
Y24167D01*
Y24253*
X6679Y24310*
X6751Y24253*
X6923Y23910D02*
X7094D01*
X6923*
X7008D02*
Y24310D01*
Y23910*
Y24310D02*
X6923Y24196D01*
X7008Y24310*
X7266Y23967D02*
Y24253D01*
Y23967*
Y24253D02*
X7338Y24310D01*
X7266Y24253*
X7303Y23939D02*
X7516Y24281D01*
X7303Y23939*
X7338Y23910D02*
X7266Y23967D01*
X7338Y23910*
Y24310D02*
X7480D01*
X7338*
X7480Y23910D02*
X7338D01*
X7480*
Y24310D02*
X7551Y24253D01*
X7480Y24310*
X7551Y23967D02*
X7480Y23910D01*
X7551Y23967*
Y24253D02*
Y23967D01*
Y24253*
X7600Y21200D02*
X8400D01*
X7600Y22800D02*
Y21200D01*
Y25200D02*
X8400D01*
X7600Y26800D02*
Y25200D01*
X7680Y25446D02*
Y25661D01*
Y25446*
Y25990D02*
X7795Y25905D01*
X7680Y25990*
X7691Y26505D02*
X7945Y26248D01*
X7691Y26505*
X7737Y25733D02*
X7680Y25661D01*
X7737Y25733*
X7738D02*
X7823D01*
X7738*
X7791Y21656D02*
Y21870D01*
Y21656*
Y22129D02*
Y22286D01*
Y22129*
Y22286D02*
X7834Y22328D01*
X7791Y22286*
X7800Y23600D02*
Y24400D01*
X6200*
X7823Y25733D02*
X7880Y25661D01*
X7823Y25733*
X7834Y22086D02*
X7791Y22129D01*
X7834Y22086*
Y22328D02*
X7934D01*
X7834*
X7848Y21942D02*
X7791Y21870D01*
X7848Y21942*
X7849D02*
X7934D01*
X7849*
X7880Y25446D02*
Y25661D01*
Y25446*
Y25661D02*
X8080Y25732D01*
X7880Y25661*
X7934Y21942D02*
X7991Y21870D01*
X7934Y21942*
Y22086D02*
X7834D01*
X7934*
Y22328D02*
X7977Y22314D01*
X7934Y22328*
X7946Y26248D02*
Y26533D01*
Y26248*
X7977Y22100D02*
X7934Y22086D01*
X7977Y22100*
X8020Y22086*
X7977Y22100*
Y22314D02*
Y22100D01*
Y22314*
X7991Y21656D02*
Y21870D01*
Y21656*
Y21870D02*
X8191Y21942D01*
X7991Y21870*
X8020Y22086D02*
X8148D01*
X8020*
Y22328D02*
X7977Y22314D01*
X8020Y22328*
X8080Y25446D02*
X7680D01*
X8080*
Y25905D02*
Y26076D01*
Y25905*
Y25990D02*
X7680D01*
X8080*
Y26505D02*
X7691D01*
X8080*
X8148Y22086D02*
X8191Y22129D01*
X8148Y22086*
Y22328D02*
X8020D01*
X8148*
X8191Y21656D02*
X7791D01*
X8191*
Y22129D02*
Y22286D01*
Y22129*
Y22286D02*
X8148Y22328D01*
X8191Y22286*
X8400Y21200D02*
Y22800D01*
X7600*
X8400Y25200D02*
Y26800D01*
X7600*
X8600Y21200D02*
X9400D01*
X8600Y22800D02*
Y21200D01*
Y25200D02*
X9400D01*
X8600Y26800D02*
Y25200D01*
X8680Y25446D02*
Y25661D01*
Y25446*
Y25990D02*
X8795Y25905D01*
X8680Y25990*
Y26248D02*
X8881D01*
X8680*
Y26533*
Y26248*
X8737Y25733D02*
X8680Y25661D01*
X8737Y25733*
X8738D02*
X8823D01*
X8738*
X8809Y21514D02*
X8852Y21470D01*
X8809Y21514*
Y21670D02*
Y21514D01*
Y21670*
Y22000D02*
X9209D01*
X8809*
Y22086D02*
Y21914D01*
Y22086*
Y22544D02*
X9209D01*
X8809*
X8823Y25733D02*
X8880Y25661D01*
X8823Y25733*
Y26320D02*
Y26462D01*
Y26320*
X8852Y21470D02*
X8980D01*
X8852*
Y21714D02*
X8809Y21670D01*
X8852Y21714*
X8880Y25446D02*
Y25661D01*
Y25446*
Y25661D02*
X9080Y25732D01*
X8880Y25661*
X8881Y26248D02*
X8823Y26320D01*
X8881Y26248*
Y26533D02*
X8823Y26462D01*
X8881Y26533*
X8980Y21470D02*
X9023Y21485D01*
X8980Y21470*
Y21714D02*
X8852D01*
X8980*
X9009Y22330D02*
X8809Y22258D01*
X9009Y22330*
Y22544D02*
Y22330D01*
Y22544*
X9023Y21485D02*
Y21699D01*
Y21485*
Y21699D02*
X9066Y21714D01*
X9023Y21699*
X8980Y21714*
X9023Y21699*
Y26248D02*
X9080Y26320D01*
X9023Y26248*
Y26533D02*
X8881D01*
X9023*
X9066Y21470D02*
X9023Y21485D01*
X9066Y21470*
Y21714D02*
X9166D01*
X9066*
Y22258D02*
X9009Y22330D01*
X9066Y22258*
X9080Y25446D02*
X8680D01*
X9080*
Y25905D02*
Y26076D01*
Y25905*
Y25990D02*
X8680D01*
X9080*
Y26320D02*
Y26462D01*
Y26320*
Y26462D02*
X9023Y26533D01*
X9080Y26462*
X9151Y22258D02*
X9066D01*
X9151*
X9152D02*
X9209Y22330D01*
X9152Y22258*
X9166Y21470D02*
X9066D01*
X9166*
Y21714D02*
X9209Y21670D01*
X9166Y21714*
X9209Y21514D02*
X9166Y21470D01*
X9209Y21514*
Y21670D02*
Y21514D01*
Y21670*
Y22000D02*
X9094Y22086D01*
X9209Y22000*
Y22544D02*
Y22330D01*
Y22544*
X9400Y21200D02*
Y22800D01*
X8600*
X9400Y25200D02*
Y26800D01*
X8600*
X9600Y25200D02*
X10400D01*
X9600Y26800D02*
Y25200D01*
X9791Y25455D02*
Y25670D01*
Y25455*
Y25999D02*
X9906Y25914D01*
X9791Y25999*
Y26329D02*
Y26471D01*
Y26329*
Y26471D02*
X9848Y26542D01*
X9791Y26471*
X9848Y25742D02*
X9791Y25670D01*
X9848Y25742*
Y26257D02*
X9791Y26329D01*
X9848Y26257*
X9849Y25742D02*
X9934D01*
X9849*
X9934D02*
X9991Y25670D01*
X9934Y25742*
X9962Y26329D02*
Y26471D01*
Y26329*
Y26471D02*
X10020Y26542D01*
X9962Y26471*
X9991Y25455D02*
Y25670D01*
Y25455*
Y25670D02*
X10191Y25741D01*
X9991Y25670*
X10020Y26257D02*
X9962Y26329D01*
X10020Y26257*
Y26542D02*
X10134D01*
X10020*
X10134Y26257D02*
X9849D01*
X10134*
Y26542D02*
X10191Y26471D01*
X10134Y26542*
X10191Y25455D02*
X9791D01*
X10191*
Y25914D02*
Y26085D01*
Y25914*
Y25999D02*
X9791D01*
X10191*
Y26329D02*
X10134Y26257D01*
X10191Y26329*
Y26471D02*
Y26329D01*
Y26471*
X10325Y20100D02*
X11675D01*
X10325Y21900D02*
X10775D01*
X10325D02*
Y20100D01*
X10400Y25200D02*
Y26800D01*
X9600*
X10739Y21250D02*
X10882Y21143D01*
X10739Y21250*
X10775Y21900D02*
G03X10995Y21680I220D01*
X11215Y21900J220*
G01X11167Y20570D02*
X10739D01*
X11167*
Y20927D02*
X10739D01*
X11167*
X11168D02*
X11239Y20838D01*
X11168Y20927*
X11200Y22600D02*
Y23400D01*
X12800*
X11215Y21900D02*
X11675D01*
X11239Y20660D02*
X11168Y20570D01*
X11239Y20660*
Y20838D02*
Y20660D01*
Y20838*
Y21143D02*
Y21357D01*
Y21143*
Y21250D02*
X10739D01*
X11239*
X11600Y24200D02*
X12400D01*
X11600Y25800D02*
Y24200D01*
X11656Y22856D02*
Y23142D01*
Y22856*
Y23142D02*
X11728Y23199D01*
X11656Y23142*
X11675Y21900D02*
Y20100D01*
X11728Y22799D02*
X11656Y22856D01*
X11728Y22799*
Y23199D02*
X11870D01*
X11728*
X11791Y24455D02*
Y24670D01*
Y24455*
Y24999D02*
X11906Y24914D01*
X11791Y24999*
Y25329D02*
X11848Y25257D01*
X11791Y25329*
Y25471D02*
Y25329D01*
Y25471*
X11848Y24742D02*
X11791Y24670D01*
X11848Y24742*
Y25542D02*
X11791Y25471D01*
X11848Y25542*
X11849Y24742D02*
X11934D01*
X11849*
Y25542D02*
X11934D01*
X11849*
X11870Y22799D02*
X11728D01*
X11870*
Y23199D02*
X11942Y23142D01*
X11870Y23199*
X11934Y24742D02*
X11991Y24670D01*
X11934Y24742*
Y25542D02*
X11991Y25472D01*
X11934Y25542*
X11942Y22856D02*
X11870Y22799D01*
X11942Y22856*
X11991Y24455D02*
Y24670D01*
Y24455*
Y24670D02*
X12191Y24741D01*
X11991Y24670*
Y25472D02*
X12049Y25542D01*
X11991Y25472*
Y25398*
Y25472*
X12049Y25542D02*
X12134D01*
X12049*
X12114Y22799D02*
X12342Y23199D01*
X12114Y22799*
X12134Y25542D02*
X12191Y25471D01*
X12134Y25542*
X12191Y24455D02*
X11791D01*
X12191*
Y24914D02*
Y25085D01*
Y24914*
Y24999D02*
X11791D01*
X12191*
Y25329D02*
X12134Y25257D01*
X12191Y25329*
Y25471D02*
Y25329D01*
Y25471*
X12342Y23199D02*
X12056D01*
X12342*
X12400Y24200D02*
Y25800D01*
X11600*
X12800Y22600D02*
X11200D01*
X12800Y23400D02*
Y22600D01*
X13200Y29600D02*
Y30400D01*
X14800*
X13456Y3720D02*
X20544D01*
X13456D02*
Y6280D01*
X20544*
X13600Y20200D02*
X14400D01*
X13600Y21800D02*
Y20200D01*
X13656Y29856D02*
Y30142D01*
Y29856*
Y30142D02*
X13728Y30199D01*
X13656Y30142*
X13728Y29799D02*
X13656Y29856D01*
X13728Y29799*
Y30199D02*
X13870D01*
X13728*
X13791Y20455D02*
Y20670D01*
Y20455*
Y20999D02*
X13906Y20914D01*
X13791Y20999*
Y21400D02*
X13906Y21314D01*
X13791Y21400*
X13848Y20742D02*
X13791Y20670D01*
X13848Y20742*
X13849D02*
X13934D01*
X13849*
X13870Y29799D02*
X13728D01*
X13870*
Y30199D02*
X13942Y30142D01*
X13870Y30199*
X13934Y20742D02*
X13991Y20670D01*
X13934Y20742*
X13942Y29856D02*
X13870Y29799D01*
X13942Y29856*
X13991Y20455D02*
Y20670D01*
Y20455*
Y20670D02*
X14191Y20741D01*
X13991Y20670*
X14000Y23500D02*
Y24500D01*
Y23500D02*
X16000D01*
X14000Y24500D02*
X16000D01*
X14056Y29856D02*
X14128Y29799D01*
X14056Y29856*
Y29998D02*
X14128Y30056D01*
X14056Y29998*
Y30199D02*
Y29998D01*
Y30199*
X14342*
X14056*
X14128Y29799D02*
X14270D01*
X14128*
Y30056D02*
X14270D01*
X14128*
X14191Y20455D02*
X13791D01*
X14191*
Y20914D02*
Y21085D01*
Y20914*
Y20999D02*
X13791D01*
X14191*
Y21314D02*
Y21486D01*
Y21314*
Y21400D02*
X13791D01*
X14191*
X14200Y25600D02*
X15800D01*
X14200Y26400D02*
Y25600D01*
X14270Y29799D02*
X14342Y29856D01*
X14270Y29799*
X14325Y27100D02*
X15675D01*
X14325Y28900D02*
Y27100D01*
Y28900D02*
X14775D01*
X14342Y29856D02*
Y29998D01*
Y29856*
Y29998D02*
X14270Y30056D01*
X14342Y29998*
X14400Y20200D02*
Y21800D01*
X13600*
X14455Y25799D02*
Y26199D01*
Y25799*
Y25999D02*
X14670D01*
X14455*
Y26199D02*
X14670D01*
X14455*
X14670Y25999D02*
X14741Y25799D01*
X14670Y25999*
X14734Y23846D02*
Y24203D01*
Y23846*
Y24204D02*
X14824Y24275D01*
X14734Y24204*
X14739Y28161D02*
X14810Y28071D01*
X14739Y28161*
Y28339D02*
Y28161D01*
Y28339*
X14742Y26056D02*
X14670Y25999D01*
X14742Y26056*
Y26142D02*
Y26056D01*
Y26142*
X14670Y26199*
X14742Y26142*
X14775Y28900D02*
G03X14995Y28680I220D01*
X15215Y28900J220*
G01X14800Y29600D02*
X13200D01*
X14800Y30400D02*
Y29600D01*
X14810Y28428D02*
X14739Y28339D01*
X14810Y28428*
X14811D02*
X14918D01*
X14811*
X14824Y23775D02*
X14734Y23846D01*
X14824Y23775*
Y24275D02*
X15002D01*
X14824*
X14914Y25799D02*
X15085D01*
X14914*
X14918Y28428D02*
X14989Y28340D01*
X14918Y28428*
X14989Y28340D02*
X15061Y28428D01*
X14989Y28340*
Y28248*
Y28340*
X14999Y25799D02*
Y26199D01*
Y25799*
Y26199D02*
X14914Y26085D01*
X14999Y26199*
X15002Y23775D02*
X14824D01*
X15002*
Y24275D02*
X15091Y24204D01*
X15002Y24275*
X15061Y28428D02*
X15168D01*
X15061*
X15091Y23846D02*
X15002Y23775D01*
X15091Y23846*
X15167Y27570D02*
X14739D01*
X15167*
Y27927D02*
X14739D01*
X15167*
X15168D02*
X15239Y27838D01*
X15168Y27927*
Y28428D02*
X15239Y28339D01*
X15168Y28428*
X15215Y28900D02*
X15675D01*
X15239Y27660D02*
X15168Y27570D01*
X15239Y27660*
Y27838D02*
Y27660D01*
Y27838*
Y28161D02*
X15168Y28071D01*
X15239Y28161*
Y28339D02*
Y28161D01*
Y28339*
X15257Y26028D02*
Y26142D01*
Y26028*
Y26142D02*
X15329Y26199D01*
X15257Y26142*
X15270Y23828D02*
X15324Y23775D01*
X15270Y23828*
Y23989D02*
Y23828D01*
Y23989*
Y24096D02*
Y24221D01*
Y24096*
Y24221D02*
X15324Y24275D01*
X15270Y24221*
X15288Y24043D02*
X15270Y24096D01*
X15288Y24043*
X15270Y23989*
X15288Y24043*
X15324Y23775D02*
X15520D01*
X15324*
Y24275D02*
X15520D01*
X15324*
X15329Y25799D02*
X15257Y25856D01*
X15329Y25799*
Y25970D02*
X15257Y26028D01*
X15329Y25970*
Y26199D02*
X15471D01*
X15329*
X15471Y25799D02*
X15329D01*
X15471*
Y25970D02*
X15329D01*
X15471*
Y26199D02*
X15542Y26142D01*
X15471Y26199*
X15520Y23775D02*
X15574Y23828D01*
X15520Y23775*
Y24275D02*
X15574Y24221D01*
X15520Y24275*
X15542Y25856D02*
X15471Y25799D01*
X15542Y25856*
Y26028D02*
X15471Y25970D01*
X15542Y26028*
Y26142D02*
Y25856D01*
Y26142*
X15556Y24043D02*
X15288D01*
X15556*
X15574Y23828D02*
Y23989D01*
Y23828*
Y23989D02*
X15556Y24043D01*
X15574Y23989*
Y24096D02*
X15556Y24043D01*
X15574Y24096*
Y24221D02*
Y24096D01*
Y24221*
X15600Y21200D02*
X16400D01*
X15600Y22800D02*
Y21200D01*
X15675Y28900D02*
Y27100D01*
X15791Y21455D02*
Y21670D01*
Y21455*
Y21999D02*
X15906Y21914D01*
X15791Y21999*
Y22329D02*
Y22471D01*
Y22329*
Y22471D02*
X15848Y22542D01*
X15791Y22471*
X15800Y25600D02*
Y26400D01*
X14200*
X15848Y21742D02*
X15791Y21670D01*
X15848Y21742*
Y22257D02*
X15791Y22329D01*
X15848Y22257*
X15849Y21742D02*
X15934D01*
X15849*
X15906Y22542D02*
X16134Y22257D01*
X15906Y22542*
X15849*
X15906*
X15934Y21742D02*
X15991Y21670D01*
X15934Y21742*
X15991Y21455D02*
Y21670D01*
Y21455*
Y21670D02*
X16191Y21741D01*
X15991Y21670*
X16000Y23500D02*
Y24500D01*
X16134Y22257D02*
X16191D01*
X16134*
X16191Y21455D02*
X15791D01*
X16191*
Y21914D02*
Y22085D01*
Y21914*
Y21999D02*
X15791D01*
X16191*
Y22257D02*
Y22542D01*
Y22257*
X16336Y4849D02*
Y5206D01*
Y4849*
Y5207D02*
X16426Y5278D01*
X16336Y5207*
X16400Y21200D02*
Y22800D01*
X15600*
X16426Y4778D02*
X16336Y4849D01*
X16426Y4778*
Y5278D02*
X16604D01*
X16426*
X16500Y9000D02*
Y11000D01*
X16600Y17200D02*
X17400D01*
X16600Y18800D02*
Y17200D01*
Y19200D02*
X17400D01*
X16600Y20800D02*
Y19200D01*
Y29200D02*
X17400D01*
X16600Y30800D02*
Y29200D01*
X16604Y4778D02*
X16426D01*
X16604*
Y5278D02*
X16693Y5207D01*
X16604Y5278*
X16680Y17446D02*
Y17661D01*
Y17446*
Y17990D02*
X16795Y17905D01*
X16680Y17990*
Y18533D02*
Y18248D01*
Y18533*
X16693Y4849D02*
X16604Y4778D01*
X16693Y4849*
X16737Y17733D02*
X16680Y17661D01*
X16737Y17733*
X16738D02*
X16823D01*
X16738*
X16749Y9701D02*
Y9879D01*
Y9701*
Y9879D02*
X16820Y9968D01*
X16749Y9879*
X16763Y10433D02*
X17080Y10111D01*
X16763Y10433*
X16791Y19455D02*
Y19670D01*
Y19455*
Y19928D02*
Y20070D01*
Y19928*
Y20070D02*
X16848Y20142D01*
X16791Y20070*
Y20329D02*
Y20471D01*
Y20329*
Y20471D02*
X16848Y20542D01*
X16791Y20471*
Y29656D02*
Y29870D01*
Y29656*
Y30129D02*
Y30271D01*
Y30129*
Y30271D02*
X16849Y30342D01*
X16791Y30271*
X16820Y9611D02*
X16749Y9701D01*
X16820Y9611*
X16823Y17733D02*
X16880Y17661D01*
X16823Y17733*
X16848Y19742D02*
X16791Y19670D01*
X16848Y19742*
Y19856D02*
X16791Y19928D01*
X16848Y19856*
Y20257D02*
X16791Y20329D01*
X16848Y20257*
Y29942D02*
X16791Y29870D01*
X16848Y29942*
Y30057D02*
X16791Y30129D01*
X16848Y30057*
X16849Y19742D02*
X16934D01*
X16849*
Y20542D02*
X17134D01*
X16849*
Y29942D02*
X16934D01*
X16849*
Y30342D02*
X17134D01*
X16849*
X16880Y17446D02*
Y17661D01*
Y17446*
Y17661D02*
X17080Y17732D01*
X16880Y17661*
X16906Y20142D02*
X17134Y19856D01*
X16906Y20142*
X16849*
X16906*
X16908Y4778D02*
X17122D01*
X16908*
X16934Y19742D02*
X16991Y19670D01*
X16934Y19742*
Y29942D02*
X16991Y29870D01*
X16934Y29942*
X16962Y30057D02*
X16849D01*
X16962*
Y30342D02*
X17020Y30271D01*
X16962Y30342*
X16991Y19455D02*
Y19670D01*
Y19455*
Y19670D02*
X17191Y19741D01*
X16991Y19670*
Y29656D02*
Y29870D01*
Y29656*
Y29870D02*
X17191Y29942D01*
X16991Y29870*
X17015Y4778D02*
Y5278D01*
Y4778*
Y5278D02*
X16908Y5135D01*
X17015Y5278*
X17020Y30129D02*
X16962Y30057D01*
X17020Y30129*
Y30271D02*
Y30129D01*
Y30271*
X17080Y17446D02*
X16680D01*
X17080*
Y17905D02*
Y18076D01*
Y17905*
Y17990D02*
X16680D01*
X17080*
Y18305D02*
X16680Y18533D01*
X17080Y18305*
X17081Y10111D02*
Y10468D01*
Y10111*
X17134Y19856D02*
X17191D01*
X17134*
Y20257D02*
X16849D01*
X17134*
Y20542D02*
X17191Y20471D01*
X17134Y20542*
Y30342D02*
X17191Y30271D01*
X17134Y30342*
X17162Y20294D02*
X16820Y20507D01*
X17162Y20294*
X17178Y9611D02*
X16821D01*
X17178*
Y9968D02*
X17249Y9879D01*
X17178Y9968*
X17191Y19455D02*
X16791D01*
X17191*
Y19856D02*
Y20142D01*
Y19856*
Y20329D02*
X17134Y20257D01*
X17191Y20329*
Y20471D02*
Y20329D01*
Y20471*
Y29656D02*
X16791D01*
X17191*
Y30129D02*
X17134Y30057D01*
X17191Y30129*
Y30271D02*
Y30129D01*
Y30271*
X17249Y9701D02*
X17178Y9611D01*
X17249Y9701*
Y9879D02*
Y9701D01*
Y9879*
Y10433D02*
X16763D01*
X17249*
X17400Y17200D02*
Y18800D01*
X16600*
X17400Y19200D02*
Y20800D01*
X16600*
X17400Y29200D02*
Y30800D01*
X16600*
X17409Y4778D02*
X17623D01*
X17409*
X17500Y9000D02*
Y11000D01*
Y9000D02*
X16500D01*
X17500Y11000D02*
X16500D01*
X17516Y4778D02*
Y5278D01*
Y4778*
Y5278D02*
X17409Y5135D01*
X17516Y5278*
X18000Y8000D02*
X20000D01*
X18000Y16000D02*
Y8000D01*
Y16000D02*
X20000D01*
X18200Y17600D02*
Y18400D01*
X19800*
X18325Y20100D02*
Y21900D01*
X18600Y11559D02*
Y11827D01*
Y11559*
Y12150D02*
X18671Y12060D01*
X18600Y12150*
Y12328D02*
Y12150D01*
Y12328*
Y21150D02*
Y21328D01*
Y21150*
Y21328D02*
X18671Y21417D01*
X18600Y21328*
X18665Y17967D02*
Y18253D01*
Y17967*
Y18253D02*
X18737Y18310D01*
X18665Y18253*
X18671Y11917D02*
X18600Y11827D01*
X18671Y11917*
Y12417D02*
X18600Y12328D01*
X18671Y12417*
Y21060D02*
X18600Y21150D01*
X18671Y21060*
X18672Y11917D02*
X18779D01*
X18672*
Y12417D02*
X18779D01*
X18672*
X18737Y17910D02*
X18665Y17967D01*
X18737Y17910*
Y18310D02*
X18879D01*
X18737*
X18743Y21417D02*
X19029Y21060D01*
X18743Y21417*
X18672*
X18743*
X18779Y11917D02*
X18850Y11827D01*
X18779Y11917*
Y12417D02*
X18850Y12329D01*
X18779Y12417*
X18785Y20100D02*
X18325D01*
X18850Y11559D02*
Y11827D01*
Y11559*
Y12329D02*
X18922Y12417D01*
X18850Y12329*
Y12237*
Y12329*
X18879Y17910D02*
X18737D01*
X18879*
Y18310D02*
X18951Y18253D01*
X18879Y18310*
X18922Y12417D02*
X19029D01*
X18922*
X18951Y17967D02*
X18879Y17910D01*
X18951Y17967*
X19028Y20559D02*
X18600D01*
X19028*
Y20916D02*
X18600D01*
X19028*
X19029Y12417D02*
X19100Y12328D01*
X19029Y12417*
Y20916D02*
X19100Y20827D01*
X19029Y20916*
Y21060D02*
X19100D01*
X19029*
X19065Y17967D02*
Y18253D01*
Y17967*
Y18081D02*
X19137Y18139D01*
X19065Y18081*
Y18253D02*
X19137Y18310D01*
X19065Y18253*
X19100Y11559D02*
X18600D01*
X19100*
Y12150D02*
X19029Y12060D01*
X19100Y12150*
Y12328D02*
Y12150D01*
Y12328*
Y20649D02*
X19029Y20559D01*
X19100Y20649*
Y20827D02*
Y20649D01*
Y20827*
Y21060D02*
Y21417D01*
Y21060*
X19137Y17910D02*
X19065Y17967D01*
X19137Y17910*
Y18139D02*
X19279D01*
X19137*
Y18310D02*
X19279D01*
X19137*
X19225Y20100D02*
G03X19005Y20320I220D01*
X18785Y20100J220*
G01X19279Y17910D02*
X19137D01*
X19279*
Y18139D02*
X19351Y18081D01*
X19279Y18139*
Y18310D02*
X19351Y18253D01*
X19279Y18310*
X19351Y17967D02*
X19279Y17910D01*
X19351Y17967*
Y18081D02*
Y17967D01*
Y18081*
X19675Y20100D02*
X19225D01*
X19675D02*
Y21900D01*
X18325*
X19800Y17600D02*
X18200D01*
X19800Y18400D02*
Y17600D01*
X20000Y8250D02*
X19750Y8000D01*
X20000Y16000D02*
Y8000D01*
X20544Y3720D02*
Y6280D01*
M02*
